<?xml version="1.0" encoding="UTF-8"?>
<svg width="27px" height="37px" viewBox="0 0 270 37" version="1.1" xmlns="http://www.w3.org/2000/svg" xmlns:xlink="http://www.w3.org/1999/xlink">
    <!-- Generator: Sketch 54.1 (76490) - https://sketchapp.com -->
    <title>Group 8</title>
    <desc>Created with Sketch.</desc>
    <g id="Symbols" stroke="none" stroke-width="1" fill="none" fill-rule="evenodd">
        <g id="header/default" transform="translate(-50.000000, -36.000000)" fill="#005087">
            <g id="Group-8" transform="translate(50.000000, 36.000000)">
                <polygon id="Fill-1" points="183.882796 12.7250811 183.882796 36.8198922 223.736784 36.8198922 223.736784 30.5520922 190.890373 30.5520922 190.890373 27.9053589 223.736784 27.9053589 223.736784 21.6375589 190.890373 21.6375589 190.890373 18.9928811 223.736784 18.9928811 223.736784 12.7250811"></polygon>
                <polygon id="Fill-2" points="84.3653512 12.7250811 84.3653512 36.8198922 124.219339 36.8198922 124.219339 30.5520922 91.3729279 30.5520922 91.3729279 27.9053589 124.219339 27.9053589 124.219339 21.6375589 91.3729279 21.6375589 91.3729279 18.9928811 124.219339 18.9928811 124.219339 12.7250811"></polygon>
                <polygon id="Fill-3" points="126.887163 36.81944 133.895153 36.81944 133.895153 12.72504 126.887163 12.72504"></polygon>
                <polygon id="Fill-4" points="126.887163 10.8006289 133.895153 10.8006289 133.895153 -8.22222222e-05 126.887163 -8.22222222e-05"></polygon>
                <polygon id="Fill-5" points="174.20752 12.7250811 174.20752 28.9092922 143.569974 12.7250811 136.562811 12.7250811 136.562811 36.8198922 143.569974 36.8198922 143.569974 20.6356811 174.20752 36.8198922 181.215097 36.8198922 181.215097 12.7250811"></polygon>
                <polygon id="Fill-6" points="0 12.7250811 0 18.9928811 27.5859663 30.5520922 0 30.5520922 0 36.8198922 44.6816871 36.8198922 44.6816871 30.5796367 44.6816871 30.5520922 44.6692638 30.5520922 17.0853681 18.9928811 51.8607055 18.9928811 51.8607055 36.8198922 58.8703528 36.8198922 58.8703528 18.9928811 81.7002607 18.9928811 81.7002607 12.7250811"></polygon>
                <path d="M269.869017,12.7250811 L226.405643,12.7250811 L226.405643,18.9764367 L226.405643,36.8050922 L233.413219,36.8050922 L247.263557,30.03327 L260.679906,36.8050922 L269.893863,36.8050922 L269.893863,33.5174367 L255.250505,26.12607 L269.869017,18.9764367 L269.893863,18.9764367 L269.893863,12.7250811 L269.869017,12.7250811 Z M233.413219,18.9764367 L254.558526,18.9764367 L233.413219,29.3167033 L233.413219,18.9764367 Z" id="Fill-7"></path>
            </g>
        </g>
    </g>
</svg>
